<svg width="1105" height="268" viewBox="0 0 1105 268" fill="none" xmlns="http://www.w3.org/2000/svg">
<path d="M0 218.182V0H148.935V42.8267H52.7344V87.571H139.453V130.504H52.7344V218.182H0Z" fill="black"/>
<path d="M161.988 218.182V0H252.116C268.451 0 282.549 2.94744 294.41 8.84233C306.342 14.6662 315.539 23.0469 322.003 33.9844C328.466 44.8509 331.697 57.7415 331.697 72.6562C331.697 87.7841 328.395 100.639 321.789 111.222C315.184 121.733 305.809 129.759 293.664 135.298C281.52 140.767 267.137 143.501 250.518 143.501H193.522V101.953H240.717C248.672 101.953 255.312 100.923 260.639 98.8636C266.037 96.733 270.12 93.5369 272.89 89.2756C275.66 84.9432 277.045 79.4034 277.045 72.6562C277.045 65.9091 275.66 60.3338 272.89 55.9304C270.12 51.456 266.037 48.1179 260.639 45.9162C255.241 43.6435 248.601 42.5071 240.717 42.5071H214.723V218.182H161.988ZM284.822 118.466L339.154 218.182H281.626L228.359 118.466H284.822Z" fill="black"/>
<path d="M394.316 218.182H337.64L411.255 0H481.461L555.076 218.182H498.4L447.157 54.9716H445.452L394.316 218.182ZM386.752 132.315H505.218V172.372H386.752V132.315Z" fill="black"/>
<path d="M750.755 0V218.182H706.011L619.186 92.2585H617.801V218.182H565.066V0H610.45L696.316 125.71H698.128V0H750.755Z" fill="black"/>
<path d="M769.668 218.182V188.139L875.67 42.8267H769.775V0H942.36V30.0426L836.359 175.355H942.254V218.182H769.668Z" fill="black"/>
<path d="M961.113 218.182V0H1013.85V175.355H1104.61V218.182H961.113Z" fill="black"/>
<path d="M0.487213 237.182H1104.49V267.182H0.487213V237.182Z" fill="black"/>
</svg>
